<mxfile host="65bd71144e">
    <diagram id="CBLUGwcMciw7ratFfqFn" name="Страница 1">
        <mxGraphModel dx="1324" dy="832" grid="1" gridSize="10" guides="1" tooltips="1" connect="1" arrows="1" fold="1" page="1" pageScale="1" pageWidth="827" pageHeight="1169" math="0" shadow="0">
            <root>
                <mxCell id="0"/>
                <mxCell id="1" parent="0"/>
                <mxCell id="4" value="&lt;span class=&quot;Bold&quot;&gt;Серверная&amp;nbsp;часть&lt;br&gt;&lt;/span&gt;" style="rounded=0;whiteSpace=wrap;html=1;labelPosition=center;verticalLabelPosition=top;align=center;verticalAlign=bottom;fillColor=#cce5ff;strokeColor=#36393d;" vertex="1" parent="1">
                    <mxGeometry x="20" y="240" width="780" height="540" as="geometry"/>
                </mxCell>
                <mxCell id="6" value="" style="shape=flexArrow;endArrow=classic;html=1;exitX=0.25;exitY=1;exitDx=0;exitDy=0;entryX=0.25;entryY=0;entryDx=0;entryDy=0;" edge="1" parent="1" source="2" target="4">
                    <mxGeometry width="50" height="50" relative="1" as="geometry">
                        <mxPoint x="180" y="270" as="sourcePoint"/>
                        <mxPoint x="230" y="220" as="targetPoint"/>
                    </mxGeometry>
                </mxCell>
                <mxCell id="7" value="" style="shape=flexArrow;endArrow=classic;html=1;exitX=0.75;exitY=0;exitDx=0;exitDy=0;entryX=0.75;entryY=1;entryDx=0;entryDy=0;" edge="1" parent="1" source="4" target="2">
                    <mxGeometry width="50" height="50" relative="1" as="geometry">
                        <mxPoint x="560" y="290" as="sourcePoint"/>
                        <mxPoint x="610" y="240" as="targetPoint"/>
                    </mxGeometry>
                </mxCell>
                <mxCell id="24" value="Хранилище S3&lt;br&gt;AmazonS3 или MinIO&lt;br&gt;&lt;br&gt;Для Обмена файлами" style="rounded=0;whiteSpace=wrap;html=1;fillColor=#f5f5f5;gradientColor=#b3b3b3;strokeColor=#666666;" vertex="1" parent="1">
                    <mxGeometry x="570" y="600" width="200" height="85" as="geometry"/>
                </mxCell>
                <mxCell id="25" value="Командная утилита &lt;b&gt;ring и&amp;nbsp;&lt;span style=&quot;background-color: initial;&quot;&gt;curl&amp;nbsp; &amp;nbsp;&lt;/span&gt;&lt;/b&gt;Для настройки системы&amp;nbsp;" style="rounded=0;whiteSpace=wrap;html=1;fillColor=#f5f5f5;gradientColor=#b3b3b3;strokeColor=#666666;" vertex="1" parent="1">
                    <mxGeometry x="20" y="740" width="780" height="40" as="geometry"/>
                </mxCell>
                <mxCell id="26" value="ICE-серверу&lt;br&gt;&lt;br&gt;Для&amp;nbsp;видеозвонков если клиенты&lt;br&gt;&amp;nbsp;за NAT" style="rounded=0;whiteSpace=wrap;html=1;fillColor=#f5f5f5;gradientColor=#b3b3b3;strokeColor=#666666;" vertex="1" parent="1">
                    <mxGeometry x="570" y="480" width="200" height="85" as="geometry"/>
                </mxCell>
                <mxCell id="30" value="" style="group;fillColor=#fff2cc;strokeColor=#d6b656;container=0;" vertex="1" connectable="0" parent="1">
                    <mxGeometry x="20" y="90" width="780" height="100" as="geometry"/>
                </mxCell>
                <mxCell id="16" value="JAVA" style="rounded=0;whiteSpace=wrap;html=1;fillColor=#f5f5f5;strokeColor=#666666;gradientColor=#b3b3b3;" vertex="1" parent="1">
                    <mxGeometry x="270" y="545" width="250" height="60" as="geometry"/>
                </mxCell>
                <mxCell id="49" style="edgeStyle=none;html=1;exitX=0;exitY=1;exitDx=0;exitDy=0;" edge="1" parent="1" source="21" target="46">
                    <mxGeometry relative="1" as="geometry"/>
                </mxCell>
                <mxCell id="50" style="edgeStyle=none;html=1;entryX=1;entryY=0.611;entryDx=0;entryDy=0;entryPerimeter=0;" edge="1" parent="1" source="21" target="15">
                    <mxGeometry relative="1" as="geometry"/>
                </mxCell>
                <mxCell id="51" style="edgeStyle=none;html=1;exitX=0;exitY=0;exitDx=0;exitDy=0;" edge="1" parent="1" source="21" target="22">
                    <mxGeometry relative="1" as="geometry"/>
                </mxCell>
                <mxCell id="52" style="edgeStyle=none;html=1;exitX=1;exitY=0;exitDx=0;exitDy=0;entryX=0.25;entryY=1;entryDx=0;entryDy=0;" edge="1" parent="1" source="21" target="10">
                    <mxGeometry relative="1" as="geometry"/>
                </mxCell>
                <mxCell id="53" style="edgeStyle=none;html=1;" edge="1" parent="1" source="21" target="26">
                    <mxGeometry relative="1" as="geometry"/>
                </mxCell>
                <mxCell id="54" style="edgeStyle=none;html=1;exitX=1;exitY=1;exitDx=0;exitDy=0;entryX=0;entryY=0.5;entryDx=0;entryDy=0;" edge="1" parent="1" source="21" target="24">
                    <mxGeometry relative="1" as="geometry"/>
                </mxCell>
                <mxCell id="56" style="edgeStyle=none;html=1;exitX=0.5;exitY=1;exitDx=0;exitDy=0;" edge="1" parent="1" source="21" target="55">
                    <mxGeometry relative="1" as="geometry"/>
                </mxCell>
                <mxCell id="21" value="&lt;b&gt;1ce-cs_instance&lt;/b&gt;&lt;br&gt;Сервер системы взаимодействия" style="rounded=0;whiteSpace=wrap;html=1;noLabel=0;fillColor=#ffcd28;strokeColor=#d79b00;gradientColor=#ffa500;" vertex="1" parent="1">
                    <mxGeometry x="295" y="480" width="200" height="80" as="geometry"/>
                </mxCell>
                <mxCell id="42" value="" style="group;fillColor=#f5f5f5;gradientColor=#b3b3b3;strokeColor=#666666;container=0;" vertex="1" connectable="0" parent="1">
                    <mxGeometry x="30" y="465" width="190" height="90" as="geometry"/>
                </mxCell>
                <mxCell id="44" value="" style="group;fillColor=#dae8fc;gradientColor=#7ea6e0;strokeColor=#6c8ebf;container=0;" vertex="1" connectable="0" parent="1">
                    <mxGeometry x="460" y="270" width="240" height="170" as="geometry"/>
                </mxCell>
                <mxCell id="45" value="" style="group;fillColor=#dae8fc;gradientColor=#7ea6e0;strokeColor=#6c8ebf;container=0;" vertex="1" connectable="0" parent="1">
                    <mxGeometry x="80" y="270" width="250" height="170" as="geometry"/>
                </mxCell>
                <mxCell id="48" style="edgeStyle=none;html=1;" edge="1" parent="1" source="46" target="47">
                    <mxGeometry relative="1" as="geometry"/>
                </mxCell>
                <mxCell id="46" value="&lt;div style=&quot;&quot;&gt;&lt;span style=&quot;background-color: initial;&quot;&gt;&lt;b&gt;Интеграции&lt;/b&gt;&lt;/span&gt;&lt;/div&gt;&lt;div style=&quot;text-align: left;&quot;&gt;&lt;ul&gt;&lt;li&gt;&lt;span style=&quot;background-color: initial;&quot;&gt;Telegram&lt;/span&gt;&lt;/li&gt;&lt;li&gt;ВКонтакте&lt;/li&gt;&lt;li&gt;WhatsApp&lt;/li&gt;&lt;li&gt;web-чат на сайте&lt;/li&gt;&lt;li&gt;webhook&lt;/li&gt;&lt;/ul&gt;&lt;/div&gt;" style="rounded=0;whiteSpace=wrap;html=1;fillColor=#ffcd28;gradientColor=#ffa500;strokeColor=#d79b00;" vertex="1" parent="1">
                    <mxGeometry x="30" y="570" width="220" height="160" as="geometry"/>
                </mxCell>
                <mxCell id="47" value="Интернет" style="ellipse;shape=cloud;whiteSpace=wrap;html=1;fillColor=#d5e8d4;gradientColor=#97d077;strokeColor=#82b366;" vertex="1" parent="1">
                    <mxGeometry x="75" y="800" width="220" height="80" as="geometry"/>
                </mxCell>
                <mxCell id="2" value="&lt;span class=&quot;Bold&quot;&gt;Клиентская часть&lt;br&gt;&lt;/span&gt;" style="rounded=0;whiteSpace=wrap;html=1;labelPosition=center;verticalLabelPosition=top;align=center;verticalAlign=bottom;fillColor=#fff2cc;strokeColor=#d6b656;" vertex="1" parent="1">
                    <mxGeometry x="20" y="90" width="780" height="100" as="geometry"/>
                </mxCell>
                <mxCell id="3" value="Web клиент&lt;br&gt;1с:Предприятие" style="rounded=0;whiteSpace=wrap;html=1;fillColor=#ffcd28;strokeColor=#d79b00;gradientColor=#ffa500;" vertex="1" parent="1">
                    <mxGeometry x="280" y="100" width="110" height="70" as="geometry"/>
                </mxCell>
                <mxCell id="14" value="Веб Клиент,&amp;nbsp;&lt;br&gt;Windows Internet Explorer, Mozilla Firefox, Google Chrome и др." style="rounded=0;whiteSpace=wrap;html=1;fillColor=#fad7ac;strokeColor=#b46504;" vertex="1" parent="1">
                    <mxGeometry x="640" y="100" width="140" height="70" as="geometry"/>
                </mxCell>
                <mxCell id="17" value="Тонкий клиент&lt;br&gt;1с:Предприятие" style="rounded=0;whiteSpace=wrap;html=1;fillColor=#ffcd28;strokeColor=#d79b00;gradientColor=#ffa500;" vertex="1" parent="1">
                    <mxGeometry x="150" y="100" width="120" height="70" as="geometry"/>
                </mxCell>
                <mxCell id="18" value="Мобильная платформа&lt;br&gt;1с:Предприятие" style="rounded=0;whiteSpace=wrap;html=1;fillColor=#ffcd28;strokeColor=#d79b00;gradientColor=#ffa500;" vertex="1" parent="1">
                    <mxGeometry x="520" y="100" width="110" height="70" as="geometry"/>
                </mxCell>
                <mxCell id="19" value="Толстый клиент&lt;br&gt;1с:Предприятие" style="rounded=0;whiteSpace=wrap;html=1;fillColor=#ffcd28;strokeColor=#d79b00;gradientColor=#ffa500;" vertex="1" parent="1">
                    <mxGeometry x="30" y="100" width="110" height="70" as="geometry"/>
                </mxCell>
                <mxCell id="20" value="Мобильный клиент&lt;br&gt;1с:Предприятие" style="rounded=0;whiteSpace=wrap;html=1;fillColor=#ffcd28;strokeColor=#d79b00;gradientColor=#ffa500;" vertex="1" parent="1">
                    <mxGeometry x="400" y="100" width="110" height="70" as="geometry"/>
                </mxCell>
                <mxCell id="10" value="1ce-hc_instance&lt;br&gt;Hazelcast для 1С:Сервера взаимодействия&lt;br&gt;&lt;br&gt;&lt;br&gt;&lt;br&gt;&lt;br&gt;&lt;br&gt;&lt;br&gt;&lt;br&gt;" style="rounded=0;whiteSpace=wrap;html=1;labelPosition=center;verticalLabelPosition=middle;align=center;verticalAlign=middle;fillColor=#ffcd28;gradientColor=#ffa500;strokeColor=#d79b00;" vertex="1" parent="1">
                    <mxGeometry x="460" y="270" width="239.99999999999997" height="170" as="geometry"/>
                </mxCell>
                <mxCell id="12" value="Распределенное хранилище.&lt;br&gt;&amp;nbsp;В&amp;nbsp;нем хранятся сессии пользователей, подписки на&amp;nbsp;события, очереди;" style="shape=process;whiteSpace=wrap;html=1;backgroundOutline=1;fillColor=#f5f5f5;gradientColor=#b3b3b3;strokeColor=#666666;" vertex="1" parent="1">
                    <mxGeometry x="470.90909090909093" y="350" width="218.18181818181816" height="83.46" as="geometry"/>
                </mxCell>
                <mxCell id="22" value="&lt;b&gt;1ce-es_instance&lt;/b&gt;&lt;br&gt;Elasticsearch для 1С:Сервера взаимодействия.&lt;br&gt;&lt;br&gt;&lt;br&gt;&lt;br&gt;&lt;br&gt;&lt;br&gt;" style="rounded=0;whiteSpace=wrap;html=1;fillColor=#ffcd28;gradientColor=#ffa500;strokeColor=#d79b00;" vertex="1" parent="1">
                    <mxGeometry x="80" y="270" width="250" height="170" as="geometry"/>
                </mxCell>
                <mxCell id="23" value="Поисковый кластер.&lt;br&gt;&amp;nbsp;Используется для подбора пользователей и&amp;nbsp;полнотекстового поиска." style="shape=process;whiteSpace=wrap;html=1;backgroundOutline=1;fillColor=#f5f5f5;gradientColor=#b3b3b3;strokeColor=#666666;" vertex="1" parent="1">
                    <mxGeometry x="84" y="350" width="240" height="80" as="geometry"/>
                </mxCell>
                <mxCell id="15" value="СУБД&lt;br&gt;PostgreSQL 9.6 или выше" style="rounded=0;whiteSpace=wrap;html=1;fillColor=#f5f5f5;gradientColor=#b3b3b3;strokeColor=#666666;" vertex="1" parent="1">
                    <mxGeometry x="30" y="465" width="190.00000000000003" height="90" as="geometry"/>
                </mxCell>
                <mxCell id="28" value="TCP 5432" style="rounded=0;whiteSpace=wrap;html=1;" vertex="1" parent="1">
                    <mxGeometry x="30" y="465" width="84.91620111731845" height="26.47058823529412" as="geometry"/>
                </mxCell>
                <mxCell id="55" value="&lt;div&gt;WebRTC Server «Janus»&lt;/div&gt;&lt;div&gt;медиасервера для проведения видеоконференций&lt;/div&gt;" style="rounded=0;whiteSpace=wrap;html=1;fillColor=#f5f5f5;gradientColor=#b3b3b3;strokeColor=#666666;" vertex="1" parent="1">
                    <mxGeometry x="260" y="630" width="270" height="90" as="geometry"/>
                </mxCell>
            </root>
        </mxGraphModel>
    </diagram>
</mxfile>